<mxfile host="65bd71144e">
    <diagram id="jkfesXwiKRlVVY32dqg3" name="Page-1">
        <mxGraphModel dx="825" dy="675" grid="1" gridSize="10" guides="1" tooltips="1" connect="1" arrows="1" fold="1" page="1" pageScale="1" pageWidth="850" pageHeight="1100" math="0" shadow="0">
            <root>
                <mxCell id="0"/>
                <mxCell id="1" parent="0"/>
                <mxCell id="35" value="" style="rounded=0;whiteSpace=wrap;html=1;fillColor=none;strokeColor=#000000;strokeWidth=3;" vertex="1" parent="1">
                    <mxGeometry x="52.57" y="57.5" width="492.86" height="525" as="geometry"/>
                </mxCell>
                <mxCell id="7" style="edgeStyle=none;html=1;exitX=1;exitY=0;exitDx=0;exitDy=0;fontSize=18;strokeWidth=3;fillColor=#cce5ff;strokeColor=#000000;" parent="1" source="2" target="3" edge="1">
                    <mxGeometry relative="1" as="geometry"/>
                </mxCell>
                <mxCell id="8" style="edgeStyle=none;html=1;exitX=1;exitY=0.5;exitDx=0;exitDy=0;fontSize=18;strokeWidth=3;fillColor=#cce5ff;strokeColor=#000000;" parent="1" source="2" target="4" edge="1">
                    <mxGeometry relative="1" as="geometry"/>
                </mxCell>
                <mxCell id="2" value="&lt;font size=&quot;1&quot;&gt;&lt;b style=&quot;font-size: 18px&quot;&gt;a.com&lt;/b&gt;&lt;/font&gt;" style="ellipse;whiteSpace=wrap;html=1;aspect=fixed;fillColor=#FFFFFF;strokeColor=#000000;strokeWidth=3;fontColor=#000000;" parent="1" vertex="1">
                    <mxGeometry x="80" y="280" width="80" height="80" as="geometry"/>
                </mxCell>
                <mxCell id="3" value="&lt;b style=&quot;font-size: 18px&quot;&gt;b.com&lt;/b&gt;" style="ellipse;whiteSpace=wrap;html=1;aspect=fixed;fillColor=#FFFFFF;strokeColor=#000000;strokeWidth=3;fontColor=#000000;perimeterSpacing=0;" parent="1" vertex="1">
                    <mxGeometry x="240" y="120" width="80" height="80" as="geometry"/>
                </mxCell>
                <mxCell id="14" style="edgeStyle=none;html=1;exitX=0;exitY=0;exitDx=0;exitDy=0;entryX=1;entryY=1;entryDx=0;entryDy=0;fontSize=18;fontColor=#000000;strokeColor=#000000;strokeWidth=3;" parent="1" source="4" target="3" edge="1">
                    <mxGeometry relative="1" as="geometry"/>
                </mxCell>
                <mxCell id="4" value="&lt;b style=&quot;font-size: 18px&quot;&gt;d.com&lt;/b&gt;" style="ellipse;whiteSpace=wrap;html=1;aspect=fixed;fillColor=#FFFFFF;strokeColor=#000000;strokeWidth=3;fontColor=#000000;" parent="1" vertex="1">
                    <mxGeometry x="440" y="280" width="80" height="80" as="geometry"/>
                </mxCell>
                <mxCell id="10" style="edgeStyle=none;html=1;exitX=1;exitY=0;exitDx=0;exitDy=0;entryX=0;entryY=1;entryDx=0;entryDy=0;fontSize=18;strokeWidth=3;fillColor=#cce5ff;strokeColor=#000000;" parent="1" source="5" target="4" edge="1">
                    <mxGeometry relative="1" as="geometry"/>
                </mxCell>
                <mxCell id="5" value="&lt;b style=&quot;font-size: 18px&quot;&gt;c.com&lt;/b&gt;" style="ellipse;whiteSpace=wrap;html=1;aspect=fixed;fillColor=#FFFFFF;strokeColor=#000000;strokeWidth=3;fontColor=#000000;" parent="1" vertex="1">
                    <mxGeometry x="290" y="440" width="80" height="80" as="geometry"/>
                </mxCell>
                <mxCell id="20" value="&lt;span style=&quot;font-size: 16px;&quot;&gt;b.com&lt;/span&gt;" style="ellipse;whiteSpace=wrap;html=1;aspect=fixed;fillColor=#FFFFFF;strokeColor=#000000;strokeWidth=3;fontColor=#000000;perimeterSpacing=0;fontStyle=1;fontSize=16;" parent="1" vertex="1">
                    <mxGeometry x="245" y="125" width="70" height="70" as="geometry"/>
                </mxCell>
                <mxCell id="21" value="&lt;font style=&quot;font-size: 16px;&quot;&gt;&lt;span style=&quot;font-size: 16px;&quot;&gt;a.com&lt;/span&gt;&lt;/font&gt;" style="ellipse;whiteSpace=wrap;html=1;aspect=fixed;fillColor=#FFFFFF;strokeColor=#000000;strokeWidth=3;fontColor=#000000;fontStyle=1;fontSize=16;" parent="1" vertex="1">
                    <mxGeometry x="85" y="285" width="70" height="70" as="geometry"/>
                </mxCell>
                <mxCell id="22" value="&lt;span style=&quot;font-size: 16px;&quot;&gt;d.com&lt;/span&gt;" style="ellipse;whiteSpace=wrap;html=1;aspect=fixed;fillColor=#FFFFFF;strokeColor=#000000;strokeWidth=3;fontColor=#000000;fontStyle=1;fontSize=16;" parent="1" vertex="1">
                    <mxGeometry x="445" y="285" width="70" height="70" as="geometry"/>
                </mxCell>
                <mxCell id="23" value="&lt;span style=&quot;font-size: 16px;&quot;&gt;c.com&lt;/span&gt;" style="ellipse;whiteSpace=wrap;html=1;aspect=fixed;fillColor=#FFFFFF;strokeColor=#000000;strokeWidth=3;fontColor=#000000;fontSize=16;fontStyle=1" parent="1" vertex="1">
                    <mxGeometry x="295.5" y="445" width="70" height="70" as="geometry"/>
                </mxCell>
                <mxCell id="24" value="&lt;span style=&quot;font-size: 14px;&quot;&gt;&lt;font color=&quot;#000000&quot; style=&quot;font-size: 14px;&quot;&gt;(4, 1, 7)&lt;/font&gt;&lt;/span&gt;" style="rounded=1;whiteSpace=wrap;html=1;fontFamily=Helvetica;strokeColor=#000000;fillColor=#CCFF99;strokeWidth=3;fontSize=14;fontStyle=1" parent="1" vertex="1">
                    <mxGeometry x="240" y="85" width="80" height="30" as="geometry"/>
                </mxCell>
                <mxCell id="25" value="&lt;span style=&quot;color: rgb(0, 0, 0); font-size: 14px;&quot;&gt;(0, 0, 0)&lt;/span&gt;" style="rounded=1;whiteSpace=wrap;html=1;fontFamily=Helvetica;strokeColor=#000000;fillColor=#CCFF99;strokeWidth=3;fontSize=14;fontStyle=1" parent="1" vertex="1">
                    <mxGeometry x="80" y="365" width="80" height="30" as="geometry"/>
                </mxCell>
                <mxCell id="26" value="&lt;span style=&quot;color: rgb(0, 0, 0); font-size: 14px;&quot;&gt;(0, 0, 0)&lt;/span&gt;" style="rounded=1;whiteSpace=wrap;html=1;fontFamily=Helvetica;strokeColor=#000000;fillColor=#CCFF99;strokeWidth=3;fontSize=14;fontStyle=1" parent="1" vertex="1">
                    <mxGeometry x="290.5" y="525" width="80" height="30" as="geometry"/>
                </mxCell>
                <mxCell id="27" value="&lt;span style=&quot;color: rgb(0, 0, 0); font-size: 14px;&quot;&gt;(2.5, 0, 4)&lt;/span&gt;" style="rounded=1;whiteSpace=wrap;html=1;fontFamily=Helvetica;strokeColor=#000000;fillColor=#CCFF99;strokeWidth=3;fontSize=14;fontStyle=1" parent="1" vertex="1">
                    <mxGeometry x="440" y="245" width="80" height="30" as="geometry"/>
                </mxCell>
                <mxCell id="28" value="&lt;span style=&quot;color: rgb(0, 0, 0); font-size: 14px;&quot;&gt;(5, 1, 7)&lt;/span&gt;" style="rounded=1;whiteSpace=wrap;html=1;fontFamily=Helvetica;strokeColor=#000000;fillColor=#99CCFF;strokeWidth=3;fontSize=14;fontStyle=1" parent="1" vertex="1">
                    <mxGeometry x="160" y="224" width="80" height="30" as="geometry"/>
                </mxCell>
                <mxCell id="32" value="&lt;span style=&quot;color: rgb(0, 0, 0); font-size: 14px;&quot;&gt;(3, 0, 4)&lt;/span&gt;" style="rounded=1;whiteSpace=wrap;html=1;fontFamily=Helvetica;strokeColor=#000000;fillColor=#99CCFF;strokeWidth=3;fontSize=14;fontStyle=1" parent="1" vertex="1">
                    <mxGeometry x="360" y="384" width="80" height="30" as="geometry"/>
                </mxCell>
                <mxCell id="33" value="&lt;span style=&quot;color: rgb(0, 0, 0); font-size: 14px;&quot;&gt;(2, 0, 3)&lt;/span&gt;" style="rounded=1;whiteSpace=wrap;html=1;fontFamily=Helvetica;strokeColor=#000000;fillColor=#99CCFF;strokeWidth=3;fontSize=14;fontStyle=1" parent="1" vertex="1">
                    <mxGeometry x="259" y="305" width="80" height="30" as="geometry"/>
                </mxCell>
                <mxCell id="34" value="&lt;span style=&quot;color: rgb(0, 0, 0); font-size: 14px;&quot;&gt;(3, 1, 4)&lt;/span&gt;" style="rounded=1;whiteSpace=wrap;html=1;fontFamily=Helvetica;strokeColor=#000000;fillColor=#99CCFF;strokeWidth=3;fontSize=14;fontStyle=1" parent="1" vertex="1">
                    <mxGeometry x="337" y="225" width="80" height="30" as="geometry"/>
                </mxCell>
            </root>
        </mxGraphModel>
    </diagram>
</mxfile>